<svg xmlns="http://www.w3.org/2000/svg" width="724" height="686" viewBox="0 0 724 686" version="1.1"><path d="M 171.500 8.127 C 160.560 9.494, 147.617 13.595, 136.946 19.077 C 106.902 34.509, 87.199 60.978, 81.522 93.534 C 79.315 106.191, 79.254 307.475, 81.453 322.062 C 88.519 368.931, 126.064 404.896, 174.273 410.975 C 179.099 411.583, 183.711 412.336, 184.523 412.647 C 185.336 412.959, 186 412.716, 186 412.107 C 186 410.479, 197.005 410.788, 200 412.500 L 202.500 413.929 200 414.106 C 198.319 414.226, 198.780 414.483, 201.409 414.892 C 204.740 415.410, 205.868 416.302, 209.049 420.931 C 215.517 430.346, 219.380 444.193, 220.853 463.247 C 221.757 474.939, 223.182 478, 227.721 478 C 231.629 478, 233.437 476.514, 241.964 466.299 C 257.349 447.867, 269.307 427.412, 277.508 405.500 C 281.831 393.950, 287.498 372.304, 288.650 362.942 C 289.415 356.727, 289.463 356.641, 290.022 360.500 C 291.105 367.992, 292.289 339.270, 291.585 322.566 C 290.380 293.993, 286.975 274.028, 279.376 251 C 274.536 236.331, 259.990 205.578, 257.218 204.154 C 256.273 203.668, 251.696 202.967, 247.046 202.595 C 230.313 201.257, 211.279 196.078, 195.252 188.501 C 180.355 181.458, 158.161 166.166, 159.558 163.906 C 159.866 163.408, 159.247 163, 158.181 163 C 156.177 163, 153.300 160.366, 154.258 159.408 C 154.557 159.110, 159.754 156.877, 165.807 154.446 C 185.881 146.386, 203.587 143, 225.665 143 C 238.514 143, 243.682 144.641, 232.779 145.259 L 226.500 145.615 233.250 145.807 C 238.303 145.952, 240 145.665, 240 144.667 C 240 142.531, 251.275 144.319, 259.283 147.725 C 261.990 148.876, 263.373 149.027, 264.146 148.254 C 265.682 146.718, 258.571 141.793, 249.908 138.394 C 243.492 135.877, 242.659 135.200, 239.430 129.884 C 231.150 116.255, 224.378 98.917, 220.983 82.658 C 218.748 71.956, 217.698 59, 219.065 59 C 219.579 59, 220 59.450, 220 60 C 220 60.550, 221.115 61, 222.477 61 C 228.508 61, 248.276 70.295, 263.053 80.079 C 276.393 88.912, 296.224 109.094, 305.484 123.261 L 312.469 133.946 319.458 135.536 C 323.301 136.410, 326.911 137.511, 327.478 137.982 C 328.328 138.687, 389.229 153.505, 554 193.096 C 563.075 195.277, 572.237 197.528, 574.361 198.099 L 578.222 199.137 577.506 206.782 C 574.023 243.950, 548.336 274.500, 512.500 284.096 C 505.309 286.022, 500.356 286.338, 463.500 287.219 C 414.085 288.401, 416.815 287.742, 412.712 299.468 C 404.936 321.694, 404.631 351.574, 411.979 371.214 C 414.593 378.200, 422.455 389.473, 428.280 394.587 C 437.555 402.730, 453.393 410.106, 461.747 410.174 C 463.533 410.188, 464.813 410.492, 464.591 410.850 C 464.370 411.207, 485.184 411.242, 510.844 410.927 C 557.269 410.357, 557.549 410.341, 567.500 407.703 C 581.055 404.108, 597.384 395.867, 607.959 387.284 C 625.880 372.740, 639.379 350.886, 644.173 328.659 C 645.079 324.457, 645.442 323.871, 646.127 325.500 C 646.591 326.600, 646.807 276.200, 646.607 213.500 C 646.249 100.571, 646.225 99.406, 644.054 89.517 C 634.496 45.961, 599.070 13.389, 555.500 8.099 C 544.485 6.761, 182.221 6.788, 171.500 8.127 M 162.382 19.456 C 142.962 24.476, 129.676 32.077, 116 45.990 C 110.950 51.129, 105.520 57.953, 102.620 62.807 C 96.821 72.514, 91.527 87.482, 90.059 98.322 C 88.597 109.120, 88.612 303.599, 90.076 316.728 C 92.646 339.774, 104.025 362.074, 120.989 377.306 C 128.107 383.698, 131.642 385.511, 127 380.389 C 125.075 378.265, 126.650 379.488, 130.500 383.106 C 138.397 390.528, 147.991 395.608, 160.622 399.056 C 166.643 400.700, 172.390 401.322, 185 401.694 L 201.500 402.181 206.702 405.569 C 209.563 407.432, 213.388 411.036, 215.202 413.578 C 217.016 416.119, 220.291 420.292, 222.479 422.849 C 224.668 425.407, 225.263 426.440, 223.803 425.145 L 221.148 422.790 223.496 428.645 C 226.235 435.472, 228.684 446.750, 229.624 456.862 C 229.989 460.788, 230.584 464, 230.947 464 C 231.311 464, 233.061 462.501, 234.837 460.668 C 236.983 458.454, 237.850 456.773, 237.422 455.657 C 236.976 454.495, 237.197 454.137, 238.139 454.495 C 239.006 454.825, 241.676 451.916, 245.500 446.474 C 262.386 422.441, 273.481 395.064, 279.134 363.488 C 282.265 345.994, 282.541 307.715, 279.658 290.500 C 275.837 267.675, 267.427 241.260, 259.122 226 C 258.673 225.175, 256.913 221.800, 255.211 218.500 L 252.116 212.500 243.823 211.732 C 214.539 209.019, 179.817 194.385, 157.156 175.208 C 152.915 171.618, 151.629 170.976, 150.922 172.093 C 150.224 173.194, 150.027 173.073, 150.015 171.534 C 150.007 170.453, 147.917 167.454, 145.370 164.868 C 138.609 158.003, 139.340 156.311, 151.614 150.420 C 171.748 140.756, 191.151 135.637, 214.500 133.829 C 222.750 133.190, 229.598 132.606, 229.717 132.533 C 229.837 132.459, 227.952 128.343, 225.529 123.386 C 215.332 102.526, 210.520 84.256, 208.533 58.854 C 207.588 46.771, 209.522 45.989, 226.600 51.547 C 237.867 55.213, 259.051 65.867, 269 72.871 C 285.373 84.396, 295.517 94.417, 311.528 114.883 L 320.555 126.423 450.450 157.690 C 567.925 185.967, 580.611 189.211, 583.124 191.619 C 584.652 193.083, 586.187 195.576, 586.535 197.158 C 586.927 198.945, 588.268 200.604, 590.074 201.538 C 593.187 203.148, 596.684 207.649, 595.635 208.698 C 595.286 209.047, 595 208.788, 595 208.121 C 595 206.441, 590.402 202, 588.662 202 C 587.633 202, 587.039 203.889, 586.541 208.750 C 584.830 225.446, 577.221 244.869, 567.247 258 C 550.671 279.823, 524.410 294.087, 498 295.613 C 492.775 295.915, 473.798 296.466, 455.828 296.837 C 437.858 297.208, 422.886 297.780, 422.557 298.109 C 422.228 298.438, 420.793 303.161, 419.367 308.604 C 414.483 327.248, 415.004 353.552, 420.531 367.395 C 423.259 374.228, 428.963 382.995, 430.683 382.998 C 431.333 382.999, 432.144 383.879, 432.485 384.953 C 433.737 388.899, 447.270 397.175, 456.500 399.641 C 463.856 401.606, 551.783 401.548, 561 399.572 C 596.248 392.016, 622.686 367.560, 633.743 332.282 L 636.495 323.500 636.796 214.500 C 637.121 96.765, 636.994 93.234, 632.052 83.438 C 630.503 80.367, 629.779 77.907, 630.367 77.711 C 630.933 77.522, 629.444 73.480, 627.057 68.728 C 616.215 47.146, 596.337 29.626, 574.139 22.086 C 558.429 16.750, 568.744 16.996, 362.685 17.049 L 171.500 17.098 162.382 19.456 M 129 60.500 C 124.903 64.625, 121.775 68, 122.050 68 C 122.325 68, 125.903 64.625, 130 60.500 C 134.097 56.375, 137.225 53, 136.950 53 C 136.675 53, 133.097 56.375, 129 60.500 M 98.479 218.500 C 98.479 269.100, 98.601 289.947, 98.750 264.826 C 98.898 239.705, 98.898 198.305, 98.750 172.826 C 98.601 147.347, 98.479 167.900, 98.479 218.500 M 497.280 308.736 C 499.909 308.943, 503.959 308.940, 506.280 308.731 C 508.601 308.521, 506.450 308.352, 501.500 308.355 C 496.550 308.358, 494.651 308.530, 497.280 308.736 M 451.250 309.739 C 454.413 309.937, 459.587 309.937, 462.750 309.739 C 465.913 309.541, 463.325 309.378, 457 309.378 C 450.675 309.378, 448.087 309.541, 451.250 309.739 M 107 349.362 C 107 350.447, 112.968 362, 113.529 362 C 113.804 362, 112.619 359.188, 110.896 355.750 C 107.630 349.234, 107 348.202, 107 349.362 M 30.022 536.898 C 21.991 539.755, 15.784 546.609, 13.037 555.652 C 10.993 562.381, 10.934 564.145, 11.249 609.055 C 11.484 642.628, 11.918 656.520, 12.815 659.182 C 15.193 666.235, 20.286 672.297, 26.523 675.500 C 31.929 678.276, 33.154 678.500, 42.933 678.498 C 52.798 678.495, 53.860 678.296, 58.921 675.498 C 69.643 669.568, 73.734 660.235, 74.715 639.459 L 75.304 627 67.768 627 L 60.232 627 59.834 640.250 C 59.487 651.812, 59.142 654.021, 57.124 657.590 C 53.944 663.214, 50.531 665, 42.964 665 C 35.171 665, 31.064 662.686, 28.410 656.799 C 26.619 652.827, 26.500 649.691, 26.500 606.532 L 26.500 560.500 28.914 556.286 C 31.845 551.170, 36.039 549, 43 549 C 54.907 549, 59.006 554.434, 59.910 571.421 L 60.500 582.500 67.500 582.500 L 74.500 582.500 74.304 572 C 73.963 553.744, 69.205 543.694, 58.399 538.407 C 50.701 534.641, 38.230 533.978, 30.022 536.898 M 89 607 L 89 678 117.046 678 L 145.091 678 144.796 671.250 L 144.500 664.500 124.750 664.229 L 105 663.958 105 599.979 L 105 536 97 536 L 89 536 89 607 M 158 607 L 158 678 187.046 678 L 216.091 678 215.796 671.250 L 215.500 664.500 194.250 664.230 L 173 663.960 173 639.004 L 173 614.047 190.250 613.774 L 207.500 613.500 207.795 606.774 L 208.090 600.048 190.795 599.774 L 173.500 599.500 173.233 574.770 L 172.965 550.040 194.233 549.770 L 215.500 549.500 215.796 542.750 L 216.091 536 187.046 536 L 158 536 158 607 M 253.073 541.250 C 252.485 544.138, 246.602 574.850, 239.999 609.500 C 233.396 644.150, 227.734 673.737, 227.417 675.250 L 226.841 678 233.921 678 C 237.814 678, 241.002 677.888, 241.004 677.750 C 241.025 676.375, 246.190 651.502, 246.588 650.858 C 247.485 649.407, 282.703 649.783, 283.265 651.250 C 283.528 651.938, 284.792 658.237, 286.073 665.250 L 288.403 678 296.221 678 C 303.821 678, 304.023 677.937, 303.500 675.750 C 302.690 672.369, 277.001 537.617, 277.001 536.750 C 277 536.337, 271.857 536, 265.571 536 L 254.142 536 253.073 541.250 M 317 606.914 L 317 678 324.500 678 L 332 678 332 647.500 L 332 617 341.788 617 C 353.886 617, 359.201 619.189, 362.431 625.500 C 364.249 629.053, 364.545 632.013, 365.077 652 C 365.406 664.375, 366.021 675.288, 366.445 676.250 C 367.083 677.703, 368.548 678, 375.082 678 L 382.950 678 381.835 675.250 C 381.205 673.696, 380.439 662.500, 380.075 649.500 C 379.506 629.248, 379.183 625.962, 377.369 622 C 375.017 616.861, 369.616 611.193, 366.271 610.353 C 363.023 609.538, 363.444 608.440, 367.986 605.888 C 372.966 603.089, 376.902 597.505, 378.653 590.758 C 380.277 584.498, 380.434 564.123, 378.914 557.033 C 377.215 549.112, 372.563 543.032, 365.500 539.500 L 359.500 536.500 338.250 536.164 L 317 535.828 317 606.914 M 423 543 L 423 550 436 550 L 449 550 449 614 L 449 678 456.500 678 L 464 678 464 614.029 L 464 550.058 477.250 549.779 L 490.500 549.500 490.796 542.750 L 491.091 536 457.046 536 L 423 536 423 543 M 517 536.890 C 517 538.159, 491.036 674.127, 490.380 676.295 C 489.886 677.926, 490.507 678.064, 497.132 677.795 L 504.427 677.500 506.967 664 L 509.507 650.500 528.004 650.500 L 546.500 650.500 548.726 662 C 549.951 668.325, 551.197 674.513, 551.495 675.750 C 551.999 677.837, 552.586 678, 559.599 678 L 567.159 678 566.599 675.250 C 566.290 673.737, 560.400 642.800, 553.508 606.500 C 546.617 570.200, 540.749 539.487, 540.470 538.250 C 539.979 536.077, 539.570 536, 528.481 536 C 522.166 536, 517 536.401, 517 536.890 M 580 607 L 580 678 608.046 678 L 636.091 678 635.796 671.250 L 635.500 664.500 615.250 664.229 L 595 663.959 595 599.979 L 595 536 587.500 536 L 580 536 580 607 M 648 607 L 648 678 656 678 L 664 678 664 654.412 L 664 630.825 667.581 624.421 C 669.551 620.899, 671.591 617.753, 672.114 617.430 C 672.638 617.106, 679.827 630.602, 688.091 647.421 L 703.115 678 711.093 678 C 718.375 678, 718.990 677.847, 718.149 676.250 C 717.643 675.288, 709.296 657.952, 699.601 637.726 L 681.973 600.952 683.629 597.726 C 684.540 595.952, 692.216 581.999, 700.686 566.719 C 709.156 551.440, 716.340 538.277, 716.650 537.469 C 717.115 536.257, 715.899 536, 709.704 536 L 702.194 536 683.347 570.250 L 664.500 604.500 664.237 570.250 L 663.974 536 655.987 536 L 648 536 648 607 M 332.233 576.250 L 332.500 602.500 342.500 602.429 C 350.653 602.370, 353.259 601.964, 356.612 600.229 C 363.350 596.741, 364.503 593.191, 364.484 576 C 364.460 552.817, 362.165 550.010, 343.233 550.004 L 331.967 550 332.233 576.250 M 264.079 555.099 C 264.036 555.429, 260.639 573.608, 256.532 595.496 C 252.424 617.385, 249.301 635.678, 249.591 636.147 C 249.881 636.616, 256.631 637, 264.590 637 C 275.934 637, 279.177 636.703, 279.589 635.628 C 279.879 634.873, 276.918 617.435, 273.009 596.878 C 266.801 564.228, 264.373 552.868, 264.079 555.099 M 524.488 570.711 C 522.966 578.845, 519.596 596.750, 516.999 610.500 C 514.403 624.250, 512.467 635.837, 512.698 636.250 C 513.240 637.218, 541.156 637.204, 542.577 636.235 C 543.315 635.731, 541.270 623.173, 536.077 596.313 C 531.910 574.760, 528.220 556.855, 527.878 556.524 C 527.535 556.193, 526.010 562.577, 524.488 570.711" stroke="none" fill="#3c1c8b" fill-rule="evenodd"/><path d="M 197 29.654 C 169.714 32.253, 149.998 41.156, 131.257 59.342 C 114.308 75.789, 104.319 94.760, 100.509 117.737 C 99.078 126.368, 98.928 138.858, 99.217 225.500 L 99.543 323.500 102.221 333.277 C 107.265 351.697, 116.459 368.161, 129.175 381.547 C 134.606 387.264, 137.874 389.705, 144.301 392.843 C 157.530 399.302, 165.942 401.131, 185 401.694 L 201.500 402.181 206.702 405.569 C 209.563 407.432, 213.388 411.036, 215.202 413.578 C 217.016 416.119, 220.124 420.067, 222.109 422.349 C 228.010 429.137, 231.223 434.954, 234.605 444.967 C 236.363 450.174, 238.184 454.561, 238.651 454.716 C 239.833 455.108, 250.519 439.702, 256.337 429.217 C 272.686 399.755, 280.763 368.808, 281.733 331.910 C 282.297 310.449, 281.352 298.824, 277.459 279.354 C 273.909 261.597, 263.657 231.942, 259.322 226.888 C 258.431 225.849, 254.748 224.840, 248.955 224.048 C 222.289 220.404, 193.944 208.985, 173.650 193.710 C 161.090 184.257, 151.014 174.917, 150.365 172.125 C 150.029 170.681, 147.726 167.400, 145.247 164.834 C 138.637 157.990, 139.388 156.287, 151.614 150.420 C 171.748 140.756, 191.151 135.637, 214.500 133.829 C 222.750 133.190, 229.598 132.606, 229.717 132.533 C 229.837 132.459, 227.952 128.343, 225.529 123.386 C 215.332 102.526, 210.520 84.256, 208.533 58.854 C 207.588 46.771, 209.522 45.989, 226.600 51.547 C 237.867 55.213, 259.051 65.867, 269 72.871 C 285.373 84.396, 295.517 94.417, 311.528 114.883 L 320.555 126.423 450.450 157.690 C 567.925 185.967, 580.611 189.211, 583.124 191.619 C 584.652 193.083, 586.180 195.541, 586.518 197.081 C 586.905 198.845, 588.421 200.641, 590.615 201.936 C 595.726 204.951, 597.353 209.632, 596.532 218.953 C 594.997 236.383, 588.304 254.844, 578.624 268.352 C 569.188 281.520, 553.404 294.384, 539.091 300.573 C 522.741 307.642, 519.415 308.108, 477.500 309.206 C 436.078 310.290, 434.474 310.528, 431.101 316.074 C 426.060 324.364, 423.908 355.731, 427.380 370.318 C 430.053 381.548, 432.704 386.616, 437.876 390.382 C 443.983 394.828, 450.367 398.002, 456.500 399.641 C 463.856 401.606, 551.783 401.548, 561 399.572 C 596.247 392.016, 622.675 367.570, 633.745 332.282 L 636.500 323.500 636.500 210.500 C 636.500 121.949, 636.222 96.292, 635.213 91.915 C 631.244 74.685, 609.540 51.746, 586.500 40.429 C 573.987 34.283, 563.703 31.342, 550 29.989 C 541.401 29.141, 205.735 28.821, 197 29.654 M 203.516 144.148 C 192.769 145.524, 177.941 149.574, 165.807 154.446 C 159.754 156.877, 154.557 159.110, 154.258 159.408 C 153.345 160.321, 156.134 163, 157.998 163 C 158.962 163, 163.246 161.407, 167.518 159.460 C 184.366 151.782, 205.632 146.863, 228.226 145.417 C 234.125 145.039, 238.711 144.341, 238.417 143.865 C 237.736 142.764, 212.735 142.967, 203.516 144.148 M 644.113 328.909 C 639.414 350.821, 625.796 372.808, 607.959 387.284 C 597.440 395.822, 581.077 404.091, 567.500 407.732 L 557.500 410.413 509.660 410.456 C 466.825 410.495, 462.275 410.649, 466.160 411.927 C 471.818 413.788, 548.793 414.715, 562.595 413.089 C 605.842 407.995, 640.444 373.235, 645.555 329.750 C 646.382 322.713, 645.546 322.226, 644.113 328.909 M 288.658 362.942 C 287.490 372.336, 281.820 393.978, 277.508 405.500 C 270.801 423.420, 261.804 439.816, 248.017 459.244 C 246.589 461.257, 246.644 461.307, 249.517 460.593 C 253.742 459.543, 256.453 456.679, 262.155 447.242 C 271.797 431.283, 279.667 412.174, 284.436 393.143 C 287.379 381.396, 290.272 363.170, 289.803 359.323 C 289.588 357.562, 289.158 358.923, 288.658 362.942 M 186 411.861 C 186 412.742, 194.128 414.004, 199.500 413.956 L 202.500 413.929 200 412.500 C 197.304 410.959, 186 410.443, 186 411.861" stroke="none" fill="#9272e2" fill-rule="evenodd"/></svg>