<svg xmlns="http://www.w3.org/2000/svg" width="1259" height="1027" viewBox="0 0 1259 1027" version="1.1"><path d="M 420.500 104.127 C 409.560 105.494, 396.617 109.595, 385.946 115.077 C 355.902 130.509, 336.199 156.978, 330.522 189.534 C 328.315 202.191, 328.254 403.475, 330.453 418.062 C 337.519 464.931, 375.064 500.896, 423.273 506.975 C 428.099 507.583, 432.711 508.336, 433.523 508.647 C 434.336 508.959, 435 508.716, 435 508.107 C 435 506.479, 446.005 506.788, 449 508.500 L 451.500 509.929 449 510.106 C 447.319 510.226, 447.780 510.483, 450.409 510.892 C 453.740 511.410, 454.868 512.302, 458.049 516.931 C 464.517 526.346, 468.380 540.193, 469.853 559.247 C 470.757 570.939, 472.182 574, 476.721 574 C 480.629 574, 482.437 572.514, 490.964 562.299 C 506.349 543.867, 518.307 523.412, 526.508 501.500 C 530.831 489.950, 536.498 468.304, 537.650 458.942 C 538.415 452.727, 538.463 452.641, 539.022 456.500 C 540.105 463.992, 541.289 435.270, 540.585 418.566 C 539.380 389.993, 535.975 370.028, 528.376 347 C 523.536 332.331, 508.990 301.578, 506.218 300.154 C 505.273 299.668, 500.696 298.967, 496.046 298.595 C 479.313 297.257, 460.279 292.078, 444.252 284.501 C 429.355 277.458, 407.161 262.166, 408.558 259.906 C 408.866 259.408, 408.247 259, 407.181 259 C 405.177 259, 402.300 256.366, 403.258 255.408 C 403.557 255.110, 408.754 252.877, 414.807 250.446 C 434.881 242.386, 452.587 239, 474.665 239 C 487.514 239, 492.682 240.641, 481.779 241.259 L 475.500 241.615 482.250 241.807 C 487.303 241.952, 489 241.665, 489 240.667 C 489 238.531, 500.275 240.319, 508.283 243.725 C 510.990 244.876, 512.373 245.027, 513.146 244.254 C 514.682 242.718, 507.571 237.793, 498.908 234.394 C 492.492 231.877, 491.659 231.200, 488.430 225.884 C 480.150 212.255, 473.378 194.917, 469.983 178.658 C 467.748 167.956, 466.698 155, 468.065 155 C 468.579 155, 469 155.450, 469 156 C 469 156.550, 470.115 157, 471.477 157 C 477.508 157, 497.276 166.295, 512.053 176.079 C 525.393 184.912, 545.224 205.094, 554.484 219.261 L 561.469 229.946 568.458 231.536 C 572.301 232.410, 575.911 233.511, 576.478 233.982 C 577.328 234.687, 638.229 249.505, 803 289.096 C 812.075 291.277, 821.237 293.528, 823.361 294.099 L 827.222 295.137 826.506 302.782 C 823.023 339.950, 797.336 370.500, 761.500 380.096 C 754.309 382.022, 749.356 382.338, 712.500 383.219 C 663.085 384.401, 665.815 383.742, 661.712 395.468 C 653.936 417.694, 653.631 447.574, 660.979 467.214 C 663.593 474.200, 671.455 485.473, 677.280 490.587 C 686.555 498.730, 702.393 506.106, 710.747 506.174 C 712.533 506.188, 713.813 506.492, 713.591 506.850 C 713.370 507.207, 734.184 507.242, 759.844 506.927 C 806.269 506.357, 806.549 506.341, 816.500 503.703 C 830.055 500.108, 846.384 491.867, 856.959 483.284 C 874.880 468.740, 888.379 446.886, 893.173 424.659 C 894.079 420.457, 894.442 419.871, 895.127 421.500 C 895.591 422.600, 895.807 372.200, 895.607 309.500 C 895.249 196.571, 895.225 195.406, 893.054 185.517 C 883.496 141.961, 848.070 109.389, 804.500 104.099 C 793.485 102.761, 431.221 102.788, 420.500 104.127 M 411.382 115.456 C 391.962 120.476, 378.676 128.077, 365 141.990 C 359.950 147.129, 354.520 153.953, 351.620 158.807 C 345.821 168.514, 340.527 183.482, 339.059 194.322 C 337.597 205.120, 337.612 399.599, 339.076 412.728 C 341.646 435.774, 353.025 458.074, 369.989 473.306 C 377.107 479.698, 380.642 481.511, 376 476.389 C 374.075 474.265, 375.650 475.488, 379.500 479.106 C 387.397 486.528, 396.991 491.608, 409.622 495.056 C 415.643 496.700, 421.390 497.322, 434 497.694 L 450.500 498.181 455.702 501.569 C 458.563 503.432, 462.388 507.036, 464.202 509.578 C 466.016 512.119, 469.291 516.292, 471.479 518.849 C 473.668 521.407, 474.263 522.440, 472.803 521.145 L 470.148 518.790 472.496 524.645 C 475.235 531.472, 477.684 542.750, 478.624 552.862 C 478.989 556.788, 479.584 560, 479.947 560 C 480.311 560, 482.061 558.501, 483.837 556.668 C 485.983 554.454, 486.850 552.773, 486.422 551.657 C 485.976 550.495, 486.197 550.137, 487.139 550.495 C 488.006 550.825, 490.676 547.916, 494.500 542.474 C 511.386 518.441, 522.481 491.064, 528.134 459.488 C 531.265 441.994, 531.541 403.715, 528.658 386.500 C 524.837 363.675, 516.427 337.260, 508.122 322 C 507.673 321.175, 505.913 317.800, 504.211 314.500 L 501.116 308.500 492.823 307.732 C 463.539 305.019, 428.817 290.385, 406.156 271.208 C 401.915 267.618, 400.629 266.976, 399.922 268.093 C 399.224 269.194, 399.027 269.073, 399.015 267.534 C 399.007 266.453, 396.917 263.454, 394.370 260.868 C 387.609 254.003, 388.340 252.311, 400.614 246.420 C 420.748 236.756, 440.151 231.637, 463.500 229.829 C 471.750 229.190, 478.598 228.606, 478.717 228.533 C 478.837 228.459, 476.952 224.343, 474.529 219.386 C 464.332 198.526, 459.520 180.256, 457.533 154.854 C 456.588 142.771, 458.522 141.989, 475.600 147.547 C 486.867 151.213, 508.051 161.867, 518 168.871 C 534.373 180.396, 544.517 190.417, 560.528 210.883 L 569.555 222.423 699.450 253.690 C 816.925 281.967, 829.611 285.211, 832.124 287.619 C 833.652 289.083, 835.187 291.576, 835.535 293.158 C 835.927 294.945, 837.268 296.604, 839.074 297.538 C 842.187 299.148, 845.684 303.649, 844.635 304.698 C 844.286 305.047, 844 304.788, 844 304.121 C 844 302.441, 839.402 298, 837.662 298 C 836.633 298, 836.039 299.889, 835.541 304.750 C 833.830 321.446, 826.221 340.869, 816.247 354 C 799.671 375.823, 773.410 390.087, 747 391.613 C 741.775 391.915, 722.798 392.466, 704.828 392.837 C 686.858 393.208, 671.886 393.780, 671.557 394.109 C 671.228 394.438, 669.793 399.161, 668.367 404.604 C 663.483 423.248, 664.004 449.552, 669.531 463.395 C 672.259 470.228, 677.963 478.995, 679.683 478.998 C 680.333 478.999, 681.144 479.879, 681.485 480.953 C 682.737 484.899, 696.270 493.175, 705.500 495.641 C 712.856 497.606, 800.783 497.548, 810 495.572 C 845.248 488.016, 871.686 463.560, 882.743 428.282 L 885.495 419.500 885.796 310.500 C 886.121 192.765, 885.994 189.234, 881.052 179.438 C 879.503 176.367, 878.779 173.907, 879.367 173.711 C 879.933 173.522, 878.444 169.480, 876.057 164.728 C 865.215 143.146, 845.337 125.626, 823.139 118.086 C 807.429 112.750, 817.744 112.996, 611.685 113.049 L 420.500 113.098 411.382 115.456 M 378 156.500 C 373.903 160.625, 370.775 164, 371.050 164 C 371.325 164, 374.903 160.625, 379 156.500 C 383.097 152.375, 386.225 149, 385.950 149 C 385.675 149, 382.097 152.375, 378 156.500 M 347.479 314.500 C 347.479 365.100, 347.601 385.947, 347.750 360.826 C 347.898 335.705, 347.898 294.305, 347.750 268.826 C 347.601 243.347, 347.479 263.900, 347.479 314.500 M 746.280 404.736 C 748.909 404.943, 752.959 404.940, 755.280 404.731 C 757.601 404.521, 755.450 404.352, 750.500 404.355 C 745.550 404.358, 743.651 404.530, 746.280 404.736 M 700.250 405.739 C 703.413 405.937, 708.587 405.937, 711.750 405.739 C 714.913 405.541, 712.325 405.378, 706 405.378 C 699.675 405.378, 697.087 405.541, 700.250 405.739 M 356 445.362 C 356 446.447, 361.968 458, 362.529 458 C 362.804 458, 361.619 455.188, 359.896 451.750 C 356.630 445.234, 356 444.202, 356 445.362 M 279.022 632.898 C 270.991 635.755, 264.784 642.609, 262.037 651.652 C 259.993 658.381, 259.934 660.145, 260.249 705.055 C 260.484 738.628, 260.918 752.520, 261.815 755.182 C 264.193 762.235, 269.286 768.297, 275.523 771.500 C 280.929 774.276, 282.154 774.500, 291.933 774.498 C 301.798 774.495, 302.860 774.296, 307.921 771.498 C 318.643 765.568, 322.734 756.235, 323.715 735.459 L 324.304 723 316.768 723 L 309.232 723 308.834 736.250 C 308.487 747.812, 308.142 750.021, 306.124 753.590 C 302.944 759.214, 299.531 761, 291.964 761 C 284.171 761, 280.064 758.686, 277.410 752.799 C 275.619 748.827, 275.500 745.691, 275.500 702.532 L 275.500 656.500 277.914 652.286 C 280.845 647.170, 285.039 645, 292 645 C 303.907 645, 308.006 650.434, 308.910 667.421 L 309.500 678.500 316.500 678.500 L 323.500 678.500 323.304 668 C 322.963 649.744, 318.205 639.694, 307.399 634.407 C 299.701 630.641, 287.230 629.978, 279.022 632.898 M 338 703 L 338 774 366.046 774 L 394.091 774 393.796 767.250 L 393.500 760.500 373.750 760.229 L 354 759.958 354 695.979 L 354 632 346 632 L 338 632 338 703 M 407 703 L 407 774 436.046 774 L 465.091 774 464.796 767.250 L 464.500 760.500 443.250 760.230 L 422 759.960 422 735.004 L 422 710.047 439.250 709.774 L 456.500 709.500 456.795 702.774 L 457.090 696.048 439.795 695.774 L 422.500 695.500 422.233 670.770 L 421.965 646.040 443.233 645.770 L 464.500 645.500 464.796 638.750 L 465.091 632 436.046 632 L 407 632 407 703 M 502.073 637.250 C 501.485 640.138, 495.602 670.850, 488.999 705.500 C 482.396 740.150, 476.734 769.737, 476.417 771.250 L 475.841 774 482.921 774 C 486.814 774, 490.002 773.888, 490.004 773.750 C 490.025 772.375, 495.190 747.502, 495.588 746.858 C 496.485 745.407, 531.703 745.783, 532.265 747.250 C 532.528 747.938, 533.792 754.237, 535.073 761.250 L 537.403 774 545.221 774 C 552.821 774, 553.023 773.937, 552.500 771.750 C 551.690 768.369, 526.001 633.617, 526.001 632.750 C 526 632.337, 520.857 632, 514.571 632 L 503.142 632 502.073 637.250 M 566 702.914 L 566 774 573.500 774 L 581 774 581 743.500 L 581 713 590.788 713 C 602.886 713, 608.201 715.189, 611.431 721.500 C 613.249 725.053, 613.545 728.013, 614.077 748 C 614.406 760.375, 615.021 771.288, 615.445 772.250 C 616.083 773.703, 617.548 774, 624.082 774 L 631.950 774 630.835 771.250 C 630.205 769.696, 629.439 758.500, 629.075 745.500 C 628.506 725.248, 628.183 721.962, 626.369 718 C 624.017 712.861, 618.616 707.193, 615.271 706.353 C 612.023 705.538, 612.444 704.440, 616.986 701.888 C 621.966 699.089, 625.902 693.505, 627.653 686.758 C 629.277 680.498, 629.434 660.123, 627.914 653.033 C 626.215 645.112, 621.563 639.032, 614.500 635.500 L 608.500 632.500 587.250 632.164 L 566 631.828 566 702.914 M 672 639 L 672 646 685 646 L 698 646 698 710 L 698 774 705.500 774 L 713 774 713 710.029 L 713 646.058 726.250 645.779 L 739.500 645.500 739.796 638.750 L 740.091 632 706.046 632 L 672 632 672 639 M 766 632.890 C 766 634.159, 740.036 770.127, 739.380 772.295 C 738.886 773.926, 739.507 774.064, 746.132 773.795 L 753.427 773.500 755.967 760 L 758.507 746.500 777.004 746.500 L 795.500 746.500 797.726 758 C 798.951 764.325, 800.197 770.513, 800.495 771.750 C 800.999 773.837, 801.586 774, 808.599 774 L 816.159 774 815.599 771.250 C 815.290 769.737, 809.400 738.800, 802.508 702.500 C 795.617 666.200, 789.749 635.487, 789.470 634.250 C 788.979 632.077, 788.570 632, 777.481 632 C 771.166 632, 766 632.401, 766 632.890 M 829 703 L 829 774 857.046 774 L 885.091 774 884.796 767.250 L 884.500 760.500 864.250 760.229 L 844 759.959 844 695.979 L 844 632 836.500 632 L 829 632 829 703 M 897 703 L 897 774 905 774 L 913 774 913 750.412 L 913 726.825 916.581 720.421 C 918.551 716.899, 920.591 713.753, 921.114 713.430 C 921.638 713.106, 928.827 726.602, 937.091 743.421 L 952.115 774 960.093 774 C 967.375 774, 967.990 773.847, 967.149 772.250 C 966.643 771.288, 958.296 753.952, 948.601 733.726 L 930.973 696.952 932.629 693.726 C 933.540 691.952, 941.216 677.999, 949.686 662.719 C 958.156 647.440, 965.340 634.277, 965.650 633.469 C 966.115 632.257, 964.899 632, 958.704 632 L 951.194 632 932.347 666.250 L 913.500 700.500 913.237 666.250 L 912.974 632 904.987 632 L 897 632 897 703 M 581.233 672.250 L 581.500 698.500 591.500 698.429 C 599.653 698.370, 602.259 697.964, 605.612 696.229 C 612.350 692.741, 613.503 689.191, 613.484 672 C 613.460 648.817, 611.165 646.010, 592.233 646.004 L 580.967 646 581.233 672.250 M 513.079 651.099 C 513.036 651.429, 509.639 669.608, 505.532 691.496 C 501.424 713.385, 498.301 731.678, 498.591 732.147 C 498.881 732.616, 505.631 733, 513.590 733 C 524.934 733, 528.177 732.703, 528.589 731.628 C 528.879 730.873, 525.918 713.435, 522.009 692.878 C 515.801 660.228, 513.373 648.868, 513.079 651.099 M 773.488 666.711 C 771.966 674.845, 768.596 692.750, 765.999 706.500 C 763.403 720.250, 761.467 731.837, 761.698 732.250 C 762.240 733.218, 790.156 733.204, 791.577 732.235 C 792.315 731.731, 790.270 719.173, 785.077 692.313 C 780.910 670.760, 777.220 652.855, 776.878 652.524 C 776.535 652.193, 775.010 658.577, 773.488 666.711" stroke="none" fill="#3c1c8b" fill-rule="evenodd"/><path d="M 446 125.654 C 418.714 128.253, 398.998 137.156, 380.257 155.342 C 363.308 171.789, 353.319 190.760, 349.509 213.737 C 348.078 222.368, 347.928 234.858, 348.217 321.500 L 348.543 419.500 351.221 429.277 C 356.265 447.697, 365.459 464.161, 378.175 477.547 C 383.606 483.264, 386.874 485.705, 393.301 488.843 C 406.530 495.302, 414.942 497.131, 434 497.694 L 450.500 498.181 455.702 501.569 C 458.563 503.432, 462.388 507.036, 464.202 509.578 C 466.016 512.119, 469.124 516.067, 471.109 518.349 C 477.010 525.137, 480.223 530.954, 483.605 540.967 C 485.363 546.174, 487.184 550.561, 487.651 550.716 C 488.833 551.108, 499.519 535.702, 505.337 525.217 C 521.686 495.755, 529.763 464.808, 530.733 427.910 C 531.297 406.449, 530.352 394.824, 526.459 375.354 C 522.909 357.597, 512.657 327.942, 508.322 322.888 C 507.431 321.849, 503.748 320.840, 497.955 320.048 C 471.289 316.404, 442.944 304.985, 422.650 289.710 C 410.090 280.257, 400.014 270.917, 399.365 268.125 C 399.029 266.681, 396.726 263.400, 394.247 260.834 C 387.637 253.990, 388.388 252.287, 400.614 246.420 C 420.748 236.756, 440.151 231.637, 463.500 229.829 C 471.750 229.190, 478.598 228.606, 478.717 228.533 C 478.837 228.459, 476.952 224.343, 474.529 219.386 C 464.332 198.526, 459.520 180.256, 457.533 154.854 C 456.588 142.771, 458.522 141.989, 475.600 147.547 C 486.867 151.213, 508.051 161.867, 518 168.871 C 534.373 180.396, 544.517 190.417, 560.528 210.883 L 569.555 222.423 699.450 253.690 C 816.925 281.967, 829.611 285.211, 832.124 287.619 C 833.652 289.083, 835.180 291.541, 835.518 293.081 C 835.905 294.845, 837.421 296.641, 839.615 297.936 C 844.726 300.951, 846.353 305.632, 845.532 314.953 C 843.997 332.383, 837.304 350.844, 827.624 364.352 C 818.188 377.520, 802.404 390.384, 788.091 396.573 C 771.741 403.642, 768.415 404.108, 726.500 405.206 C 685.078 406.290, 683.474 406.528, 680.101 412.074 C 675.060 420.364, 672.908 451.731, 676.380 466.318 C 679.053 477.548, 681.704 482.616, 686.876 486.382 C 692.983 490.828, 699.367 494.002, 705.500 495.641 C 712.856 497.606, 800.783 497.548, 810 495.572 C 845.247 488.016, 871.675 463.570, 882.745 428.282 L 885.500 419.500 885.500 306.500 C 885.500 217.949, 885.222 192.292, 884.213 187.915 C 880.244 170.685, 858.540 147.746, 835.500 136.429 C 822.987 130.283, 812.703 127.342, 799 125.989 C 790.401 125.141, 454.735 124.821, 446 125.654 M 452.516 240.148 C 441.769 241.524, 426.941 245.574, 414.807 250.446 C 408.754 252.877, 403.557 255.110, 403.258 255.408 C 402.345 256.321, 405.134 259, 406.998 259 C 407.962 259, 412.246 257.407, 416.518 255.460 C 433.366 247.782, 454.632 242.863, 477.226 241.417 C 483.125 241.039, 487.711 240.341, 487.417 239.865 C 486.736 238.764, 461.735 238.967, 452.516 240.148 M 893.113 424.909 C 888.414 446.821, 874.796 468.808, 856.959 483.284 C 846.440 491.822, 830.077 500.091, 816.500 503.732 L 806.500 506.413 758.660 506.456 C 715.825 506.495, 711.275 506.649, 715.160 507.927 C 720.818 509.788, 797.793 510.715, 811.595 509.089 C 854.842 503.995, 889.444 469.235, 894.555 425.750 C 895.382 418.713, 894.546 418.226, 893.113 424.909 M 537.658 458.942 C 536.490 468.336, 530.820 489.978, 526.508 501.500 C 519.801 519.420, 510.804 535.816, 497.017 555.244 C 495.589 557.257, 495.644 557.307, 498.517 556.593 C 502.742 555.543, 505.453 552.679, 511.155 543.242 C 520.797 527.283, 528.667 508.174, 533.436 489.143 C 536.379 477.396, 539.272 459.170, 538.803 455.323 C 538.588 453.562, 538.158 454.923, 537.658 458.942 M 435 507.861 C 435 508.742, 443.128 510.004, 448.500 509.956 L 451.500 509.929 449 508.500 C 446.304 506.959, 435 506.443, 435 507.861" stroke="none" fill="#9272e2" fill-rule="evenodd"/></svg>